Coordinates
version=1
nRows=14
nColumns=40
inDegrees=yes

Units are S.I. units (second, meters, Newtons, ...)
Angles are in degrees.

endheader
time	pelvis_tilt	pelvis_list	pelvis_rotation	pelvis_tx	pelvis_ty	pelvis_tz	hip_flexion_r	hip_adduction_r	hip_rotation_r	knee_angle_r	knee_angle_r_beta	ankle_angle_r	subtalar_angle_r	mtp_angle_r	hip_flexion_l	hip_adduction_l	hip_rotation_l	knee_angle_l	knee_angle_l_beta	ankle_angle_l	subtalar_angle_l	mtp_angle_l	lumbar_extension	lumbar_bending	lumbar_rotation	arm_flex_r	arm_add_r	arm_rot_r	elbow_flex_r	pro_sup_r	wrist_flex_r	wrist_dev_r	arm_flex_l	arm_add_l	arm_rot_l	elbow_flex_l	pro_sup_l	wrist_flex_l	wrist_dev_l
     13.42000000	     -1.97224485	     -4.22048366	      5.39754276	      1.10465229	      0.93315526	      0.48908904	      7.47326572	      2.41655253	    -16.39940259	     14.67129549	     14.67129549	     10.84207922	     -2.64526890	     -6.62393269	     30.45289323	    -11.31441706	     -0.34052562	     35.07520166	     35.07520166	     10.47373582	    -16.47663485	     11.01712824	    -11.13609532	      5.39920279	      1.97531936	     23.82588474	    -17.29179951	     -2.34383194	     66.73408436	     45.04055909	      0.00000000	      0.00000000	      2.71892181	     -8.47894035	     -7.64852481	     27.65135562	     46.80035951	      0.00000000	      0.00000000
     13.43285714	     -2.36695771	     -4.27810256	      5.75033434	      1.10303740	      0.93261573	      0.48897845	      7.50673363	      2.49537233	    -16.64509454	     14.40203350	     14.40203350	     10.92544733	     -2.71373173	     -6.69782250	     30.86826298	    -10.89914719	      0.02999129	     31.58862032	     31.58862032	     10.47524813	    -15.08083553	     11.22444469	    -10.89026981	      5.40304059	      2.11554621	     25.34453824	    -17.52613636	     -2.46504942	     68.09255148	     45.00787714	      0.00000000	      0.00000000	      1.94524274	     -8.46232615	     -7.68143190	     27.08135825	     46.79121326	      0.00000000	      0.00000000
     13.44571429	     -2.48827427	     -4.21859539	      6.08944551	      1.10174959	      0.93244922	      0.48872524	      7.06812363	      2.49331523	    -16.99504011	     13.85520509	     13.85520509	     10.85549082	     -2.50519241	     -7.21648993	     30.77219938	    -10.41479625	      0.27273484	     28.02757017	     28.02757017	      9.80990842	    -13.66196225	      9.61139694	    -11.11463608	      5.34456022	      2.21517441	     25.82815364	    -17.97251255	     -1.89874088	     73.19749188	     44.84120896	      0.00000000	      0.00000000	      1.52336454	     -8.48784182	     -8.00530181	     25.52330826	     46.82633608	      0.00000000	      0.00000000
     13.45857143	     -2.76824613	     -4.19541849	      6.34618180	      1.10033733	      0.93200460	      0.48852321	      6.98279104	      2.49779644	    -17.05559128	     13.63721338	     13.63721338	     11.01262514	     -2.60581614	     -7.30710304	     30.91689067	     -9.98509304	      0.48523817	     24.91588971	     24.91588971	      9.79295505	    -11.97078754	      9.79035081	    -11.08377302	      5.21300645	      2.15982381	     27.29734174	    -17.85781310	     -2.09691552	     74.79970874	     44.80644301	      0.00000000	      0.00000000	      0.76206107	     -8.63057701	     -8.06349927	     24.95049220	     46.82100252	      0.00000000	      0.00000000
     13.47142857	     -2.98113284	     -4.29879091	      6.62332900	      1.09900071	      0.93146350	      0.48817051	      6.79266590	      2.63691253	    -17.25154168	     13.33437560	     13.33437560	     11.06063500	     -2.61635530	     -7.57180527	     31.14571969	     -9.71886043	      0.61341467	     22.36036276	     22.36036276	      9.60080786	    -10.22678297	      9.24832705	    -11.15988868	      5.28903878	      2.42860551	     28.06555104	    -18.23423627	     -2.20302161	     78.54733472	     44.72199975	      0.00000000	      0.00000000	      0.22792356	     -8.64198678	     -8.34134524	     24.37620452	     46.84362205	      0.00000000	      0.00000000
     13.48428571	     -3.24153478	     -4.33228844	      6.86532013	      1.09769619	      0.93093498	      0.48768535	      6.70642002	      2.67128350	    -17.36827982	     13.16458323	     13.16458323	     11.21470491	     -2.68734723	     -7.61516306	     31.40797980	     -9.36473443	      0.71161832	     20.20681585	     20.20681585	      9.54919546	     -8.82790907	      9.48410115	    -11.10919672	      5.24496816	      2.32337417	     29.52077251	    -17.99935252	     -2.32925892	     80.21755703	     44.68486637	      0.00000000	      0.00000000	     -0.54449476	     -8.75561756	     -8.39265734	     23.94577056	     46.83581905	      0.00000000	      0.00000000
     13.49714286	     -3.47804648	     -4.40935353	      7.09797324	      1.09650851	      0.93037874	      0.48709556	      6.59200293	      2.74886595	    -17.51214471	     12.99389992	     12.99389992	     11.38621844	     -2.71087567	     -7.64117616	     31.73395467	     -9.08877129	      0.65602151	     18.62487269	     18.62487269	      9.47950828	     -7.66494514	      9.64692197	    -11.09582763	      5.27112724	      2.21981820	     30.83406528	    -17.79350336	     -2.33313132	     82.22080950	     44.63297619	      0.00000000	      0.00000000	     -1.31298875	     -8.82844837	     -8.46769058	     23.67466241	     46.83145702	      0.00000000	      0.00000000
     13.51000000	     -3.68754459	     -4.50362622	      7.28678445	      1.09545623	      0.92983350	      0.48639001	      6.44542081	      2.83230133	    -17.65291413	     12.83371148	     12.83371148	     11.55422248	     -2.66798593	     -7.61408052	     32.10398662	     -8.86661662	      0.49297243	     17.65563528	     17.65563528	      9.38751176	     -6.83814068	      9.67507690	    -11.12005195	      5.30365451	      2.17672396	     31.94711510	    -17.74254136	     -2.26899797	     84.71937847	     44.56743807	      0.00000000	      0.00000000	     -2.07891689	     -8.88523676	     -8.60147547	     23.65031512	     46.83387101	      0.00000000	      0.00000000
     13.52285714	     -3.94405703	     -4.64110038	      7.44957283	      1.09452880	      0.92913532	      0.48553660	      6.37881894	      2.94219247	    -17.73346987	     12.73294905	     12.73294905	     11.73124546	     -2.66633477	     -7.62561223	     32.55709342	     -8.68067698	      0.32302841	     17.19528868	     17.19528868	      9.24564307	     -6.59207699	      9.73536129	    -10.95187956	      5.38554128	      2.42963466	     33.19531578	    -17.88072174	     -2.41810412	     85.77024539	     44.54716160	      0.00000000	      0.00000000	     -2.60273035	     -8.89898512	     -8.65227122	     23.53688492	     46.83144104	      0.00000000	      0.00000000
     13.53571429	     -4.08363545	     -4.76447225	      7.57978655	      1.09393921	      0.92856800	      0.48460602	      6.15555607	      3.04238254	    -17.91445820	     12.64236955	     12.64236955	     12.04598601	     -2.45392624	     -7.38220008	     32.81227704	     -8.55509217	     -0.05300557	     17.10542076	     17.10542076	      9.00197162	     -6.49294130	      9.26821221	    -11.06790581	      5.43299196	      2.64952721	     33.60717559	    -18.09716848	     -2.31790749	     89.34781880	     44.46338732	      0.00000000	      0.00000000	     -3.39177724	     -8.91561242	     -8.98051964	     24.23342836	     46.85620077	      0.00000000	      0.00000000
     13.54857143	     -4.23003825	     -4.91453860	      7.66781985	      1.09353681	      0.92790774	      0.48362246	      5.94270090	      3.17538526	    -18.00315729	     12.56044587	     12.56044587	     12.29288986	     -2.40164138	     -7.33385770	     33.06033506	     -8.47179874	     -0.32152295	     17.45217111	     17.45217111	      8.75490165	     -6.85040583	      9.12416421	    -11.00898922	      5.46647207	      2.66950781	     34.65399452	    -17.81398284	     -2.43659331	     90.57854790	     44.44168587	      0.00000000	      0.00000000	     -3.95131026	     -8.92384739	     -9.03440801	     24.08479929	     46.85108389	      0.00000000	      0.00000000
     13.56142857	     -4.40290584	     -4.98025219	      7.65049087	      1.09345948	      0.92725702	      0.48247953	      5.72106164	      3.20645622	    -17.94883114	     12.46594034	     12.46594034	     12.50232249	     -2.32338140	     -7.34157100	     33.10288519	     -8.37082905	     -0.78359720	     17.88235958	     17.88235958	      8.43006637	     -7.26001270	      9.12943558	    -10.81180009	      5.43438965	      2.94115556	     35.50723515	    -17.83174475	     -2.54543853	     91.16765309	     44.43229727	      0.00000000	      0.00000000	     -4.42564587	     -8.96327008	     -9.07476062	     23.95366648	     46.84848527	      0.00000000	      0.00000000
     13.57428571	     -4.45114106	     -5.23790446	      7.70862766	      1.09369348	      0.92639250	      0.48122657	      5.36359747	      3.43139579	    -18.18287333	     12.40711014	     12.40711014	     12.99446630	     -1.84114987	     -6.91426490	     33.13312167	     -8.43768470	     -0.86804277	     18.77101802	     18.77101802	      7.72403691	     -8.11334213	      8.03101266	    -10.84908085	      5.65982000	      2.99496332	     35.94256542	    -17.71882721	     -2.53058123	     93.82451959	     44.39011945	      0.00000000	      0.00000000	     -5.13423501	     -8.91072347	     -9.41826157	     24.73365133	     46.87355752	      0.00000000	      0.00000000
     13.58714286	     -4.48533157	     -5.45063196	      7.65291481	      1.09423489	      0.92552233	      0.47995747	      4.97990544	      3.62779628	    -18.18057547	     12.34256743	     12.34256743	     13.28764143	     -1.67152775	     -6.89296837	     32.98273728	     -8.53944008	     -1.04274308	     19.74550218	     19.74550218	      7.31117288	     -8.74945760	      7.84502988	    -10.73547367	      5.79507140	      3.11717871	     36.64843055	    -17.49092449	     -2.59631079	     94.53126191	     44.38115729	      0.00000000	      0.00000000	     -5.56754416	     -8.90639336	     -9.47227729	     24.63572940	     46.87124358	      0.00000000	      0.00000000
